
        <svg xmlns="http://www.w3.org/2000/svg" xmlns:xlink="http://www.w3.org/1999/xlink" version="1.1" width="3171.4285714285716" height="2056.092067971303" viewBox="0 0 3171.4285714285716 2056.092067971303">
			
			<g transform="scale(8.571428571428571) translate(10, 10)">
				<defs id="SvgjsDefs3250"><linearGradient id="SvgjsLinearGradient3255"><stop id="SvgjsStop3256" stop-color="#b98947" offset="0"/><stop id="SvgjsStop3257" stop-color="#faf0a1" offset="1"/></linearGradient></defs><g id="SvgjsG3251" featureKey="monogramFeature-0" transform="matrix(4.243716182239133,0,0,4.243716182239133,108.26715773225307,-76.3868912803044)" fill="#fff"><path d="M27.694 18 l1.0798 0 l0 42 l-24.693 -29.429 l0 29.429 l-1.0804 0 l0 -42 l24.694 29.583 l0 -29.583 z M27.694 56.9008 l-0.00058594 -7.572 l-23.613 -28.212 l0 7.7169 z"/></g><g id="SvgjsG3252" featureKey="nameFeature-0" transform="matrix(0.755957362971193,0,0,0.755957362971193,-2.570254745727208,189.18554014685432)" fill="#fff"><path d="M22.96 12 c0.36 0 0.6 0.24 0.6 0.6 l0 26.8 c0 0.3 -0.18 0.52 -0.44 0.58 l0 0.02 l-2.1 0 c-0.32 0 -0.56 -0.12 -0.72 -0.4 l-14.4 -24.18 l0 23.98 c0 0.36 -0.24 0.6 -0.6 0.6 l-1.3 0 c-0.36 0 -0.6 -0.24 -0.6 -0.6 l0 -26.8 c0 -0.32 0.18 -0.54 0.46 -0.58 l0 -0.02 l2.08 0 c0.32 0 0.56 0.12 0.72 0.4 l14.4 24.14 l0 -23.94 c0 -0.36 0.24 -0.6 0.6 -0.6 l1.3 0 z M48.19 40.52 c-7.92 0 -14.3 -6.4 -14.3 -14.4 c0 -8.04 6.38 -14.44 14.3 -14.44 c7.88 0 14.26 6.4 14.26 14.44 c0 8 -6.38 14.4 -14.26 14.4 z M48.19 38.22 c6.62 0 11.86 -5.36 11.86 -12.1 c0 -6.78 -5.24 -12.14 -11.86 -12.14 c-6.66 0 -11.9 5.36 -11.9 12.14 c0 6.74 5.24 12.1 11.9 12.1 z M94.52 35.12 l0.86 0.86 c0.3 0.28 0.24 0.6 -0.04 0.84 c-2.62 2.42 -5.56 3.7 -9.36 3.7 c-7.94 0 -14 -6.42 -14 -14.4 c0 -8.04 6.06 -14.44 14 -14.44 c3.8 0 6.74 1.4 9.36 3.68 c0.28 0.24 0.34 0.56 0.04 0.84 l-0.86 0.88 c-0.3 0.28 -0.56 0.22 -0.84 -0.02 c-2.16 -1.86 -4.56 -2.96 -7.68 -2.96 c-6.36 0 -11.5 5.14 -11.5 12.02 c0 6.82 5.14 11.96 11.5 11.96 c3.12 0 5.52 -1.08 7.68 -2.96 c0.28 -0.24 0.54 -0.28 0.84 0 z M124.55 39.28 c0.28 0.4 0.12 0.72 -0.36 0.72 l-1.66 0 c-0.32 0 -0.52 -0.08 -0.72 -0.36 l-10.24 -13.44 l-3.96 4.3 l0 8.9 c0 0.36 -0.24 0.6 -0.6 0.6 l-1.3 0 c-0.36 0 -0.6 -0.24 -0.6 -0.6 l0 -26.8 c0 -0.36 0.24 -0.6 0.6 -0.6 l1.3 0 c0.36 0 0.6 0.24 0.6 0.6 l0 14.5 l13.5 -14.78 c0.2 -0.24 0.44 -0.32 0.72 -0.32 l1.82 0 c0.52 0 0.7 0.36 0.32 0.72 l-10.82 11.74 z M160.20999999999998 12 c9.76 0 14.64 6.04 14.64 14 c0 7.94 -4.88 14 -14.64 14 l-5.86 0 c-0.36 0 -0.6 -0.24 -0.6 -0.6 l0 -26.8 c0 -0.36 0.24 -0.6 0.6 -0.6 l5.86 0 z M160.20999999999998 37.64 c8.1 0 12.1 -4.48 12.1 -11.64 c0 -7.18 -4 -11.64 -12.1 -11.64 l-3.96 0 l0 23.28 l3.96 0 z M201.98 37.64 c0.36 0 0.6 0.24 0.6 0.6 l0 1.16 c0 0.36 -0.24 0.6 -0.6 0.6 l-16.9 0 c-0.36 0 -0.6 -0.24 -0.6 -0.6 l0 -26.8 c0 -0.36 0.24 -0.6 0.6 -0.6 l16.86 0 c0.36 0 0.6 0.24 0.6 0.6 l0 1.16 c0 0.36 -0.24 0.6 -0.6 0.6 l-14.96 0 l0 9.62 l13.86 0 c0.36 0 0.6 0.24 0.6 0.6 l0 1.16 c0 0.36 -0.24 0.6 -0.6 0.6 l-13.86 0 l0 11.3 l15 0 z M221.73 24.46 c5.52 1.18 10.26 2.7 10.26 8.52 c0 4.26 -3.06 7.62 -10.14 7.62 c-5.84 0 -9.66 -2.24 -10.04 -6.38 c-0.04 -0.4 0.2 -0.74 0.56 -0.74 l1.36 0 c0.36 0 0.58 0.3 0.6 0.62 c0.26 2.54 3.06 4.2 7.52 4.2 c4.96 0 7.66 -1.74 7.66 -5.36 c0 -4.3 -3.32 -4.96 -7.78 -6.06 c-5.12 -1.26 -9.18 -2.84 -9.18 -8.16 c0 -4.22 3.02 -7.06 9 -7.06 c5.64 0 9.16 2.18 9.58 6.3 c0.04 0.4 -0.2 0.56 -0.56 0.56 l-1.26 0 c-0.36 0 -0.58 -0.12 -0.6 -0.44 c-0.26 -2.44 -2.92 -4.18 -7.18 -4.18 c-3.92 0 -6.6 1.58 -6.6 4.82 c0 3.42 2.7 4.84 6.8 5.74 z M260.52 14.36 l-8 0 l0 23.28 l8 0 c0.36 0 0.6 0.24 0.6 0.6 l0 1.16 c0 0.36 -0.24 0.6 -0.6 0.6 l-18.5 0 c-0.36 0 -0.6 -0.24 -0.6 -0.6 l0 -1.16 c0 -0.36 0.24 -0.6 0.6 -0.6 l8 0 l0 -23.28 l-8 0 c-0.36 0 -0.6 -0.24 -0.6 -0.6 l0 -1.16 c0 -0.36 0.24 -0.6 0.6 -0.6 l18.5 0 c0.36 0 0.6 0.24 0.6 0.6 l0 1.16 c0 0.36 -0.24 0.6 -0.6 0.6 z M297.27 25.86 c0.36 0 0.6 0.24 0.6 0.6 l0 1 c0 7.48 -4.94 13.06 -12.9 13.06 c-8.08 0 -14.02 -6.44 -14.02 -14.46 c0 -7.98 6.06 -14.38 14 -14.38 c3.8 0 6.74 1.4 9.36 3.68 c0.28 0.24 0.34 0.56 0.04 0.84 l-0.86 0.88 c-0.3 0.28 -0.56 0.22 -0.84 -0.02 c-2.16 -1.86 -4.56 -2.96 -7.68 -2.96 c-6.36 0 -11.5 5.14 -11.5 11.96 c0 6.86 5.08 12.02 11.52 12.02 c5.92 0 10.38 -3.92 10.54 -9.8 l-10.06 0 c-0.36 0 -0.6 -0.24 -0.6 -0.6 l0 -1.22 c0 -0.36 0.24 -0.6 0.6 -0.6 l11.8 0 z M327.75999999999993 12 c0.36 0 0.6 0.24 0.6 0.6 l0 26.8 c0 0.3 -0.18 0.52 -0.44 0.58 l0 0.02 l-2.1 0 c-0.32 0 -0.56 -0.12 -0.72 -0.4 l-14.4 -24.18 l0 23.98 c0 0.36 -0.24 0.6 -0.6 0.6 l-1.3 0 c-0.36 0 -0.6 -0.24 -0.6 -0.6 l0 -26.8 c0 -0.32 0.18 -0.54 0.46 -0.58 l0 -0.02 l2.08 0 c0.32 0 0.56 0.12 0.72 0.4 l14.4 24.14 l0 -23.94 c0 -0.36 0.24 -0.6 0.6 -0.6 l1.3 0 z M348.21 24.46 c5.52 1.18 10.26 2.7 10.26 8.52 c0 4.26 -3.06 7.62 -10.14 7.62 c-5.84 0 -9.66 -2.24 -10.04 -6.38 c-0.04 -0.4 0.2 -0.74 0.56 -0.74 l1.36 0 c0.36 0 0.58 0.3 0.6 0.62 c0.26 2.54 3.06 4.2 7.52 4.2 c4.96 0 7.66 -1.74 7.66 -5.36 c0 -4.3 -3.32 -4.96 -7.78 -6.06 c-5.12 -1.26 -9.18 -2.84 -9.18 -8.16 c0 -4.22 3.02 -7.06 9 -7.06 c5.64 0 9.16 2.18 9.58 6.3 c0.04 0.4 -0.2 0.56 -0.56 0.56 l-1.26 0 c-0.36 0 -0.58 -0.12 -0.6 -0.44 c-0.26 -2.44 -2.92 -4.18 -7.18 -4.18 c-3.92 0 -6.6 1.58 -6.6 4.82 c0 3.42 2.7 4.84 6.8 5.74 z M405.63 37.64 c0.36 0 0.6 0.24 0.6 0.6 l0 1.16 c0 0.36 -0.24 0.6 -0.6 0.6 l-16.7 0 c-0.36 0 -0.6 -0.24 -0.6 -0.6 l0 -26.8 c0 -0.36 0.24 -0.6 0.6 -0.6 l1.3 0 c0.36 0 0.6 0.24 0.6 0.6 l0 25.04 l14.8 0 z M433.26 37.64 c0.36 0 0.6 0.24 0.6 0.6 l0 1.16 c0 0.36 -0.24 0.6 -0.6 0.6 l-16.7 0 c-0.36 0 -0.6 -0.24 -0.6 -0.6 l0 -26.8 c0 -0.36 0.24 -0.6 0.6 -0.6 l1.3 0 c0.36 0 0.6 0.24 0.6 0.6 l0 25.04 l14.8 0 z M465.33 35.12 l0.86 0.86 c0.3 0.28 0.24 0.6 -0.04 0.84 c-2.62 2.42 -5.56 3.7 -9.36 3.7 c-7.94 0 -14 -6.42 -14 -14.4 c0 -8.04 6.06 -14.44 14 -14.44 c3.8 0 6.74 1.4 9.36 3.68 c0.28 0.24 0.34 0.56 0.04 0.84 l-0.86 0.88 c-0.3 0.28 -0.56 0.22 -0.84 -0.02 c-2.16 -1.86 -4.56 -2.96 -7.68 -2.96 c-6.36 0 -11.5 5.14 -11.5 12.02 c0 6.82 5.14 11.96 11.5 11.96 c3.12 0 5.52 -1.08 7.68 -2.96 c0.28 -0.24 0.54 -0.28 0.84 0 z"/></g>
			</g>
		</svg>
	