<svg version="1.1" id="Layer_1" xmlns="http://www.w3.org/2000/svg" xmlns:xlink="http://www.w3.org/1999/xlink" x="0px" y="0px"
	 width="100%" viewBox="0 0 512 512" enable-background="new 0 0 512 512" xml:space="preserve">
<path fill="#000000" opacity="1.000000" stroke="none" 
	d="
M364.000000,0.999998 
	C369.354919,1.000000 374.709869,1.000000 380.647034,1.367381 
	C386.626373,4.467065 392.616974,6.437726 397.299469,10.086938 
	C407.710541,18.200615 410.420013,30.103605 410.969055,42.618412 
	C411.162628,47.030895 411.000000,51.459007 411.000000,55.517738 
	C420.404877,56.043655 429.373383,55.409725 437.815887,57.223740 
	C466.632721,63.415531 485.740936,86.664444 485.841461,115.755119 
	C486.231201,228.568680 486.013641,341.384369 485.942413,454.199249 
	C485.939972,458.089203 485.515503,462.087006 484.561371,465.850403 
	C479.123016,487.301086 466.456390,502.499390 445.366394,510.141418 
	C442.301422,511.252014 439.124908,512.054810 436.000000,513.000000 
	C316.979095,513.000000 197.958206,513.000000 78.334045,512.615845 
	C76.266167,512.064392 74.744354,512.097351 73.345909,511.698151 
	C61.312656,508.263031 51.063152,502.173981 42.830433,492.470612 
	C32.835720,480.690521 28.039637,467.174164 28.031603,451.943329 
	C27.972927,340.700928 27.957518,229.458481 28.062553,118.216171 
	C28.073645,106.469505 30.483625,95.210846 36.952324,85.001251 
	C48.597050,66.622299 65.180588,56.938587 86.844856,56.044765 
	C93.775726,55.758812 100.728333,56.000000 108.000000,56.000000 
	C108.000000,49.093239 107.640503,42.610847 108.079773,36.183037 
	C108.839958,25.059305 113.375420,15.575527 122.562019,8.990661 
	C127.002449,5.807808 132.164612,3.631855 137.000000,1.000000 
	C142.354935,1.000000 147.709854,1.000000 153.647003,1.367357 
	C159.739197,4.576672 165.891205,6.620102 170.625580,10.426688 
	C180.507263,18.371891 183.418533,29.865795 183.966522,42.029472 
	C184.172974,46.612194 184.000000,51.212006 184.000000,55.729755 
	C196.638184,55.729755 208.695129,55.729755 220.507507,55.729755 
	C221.017456,47.911179 221.332184,40.361629 222.050644,32.850693 
	C222.742142,25.621834 225.984665,19.427750 230.595840,13.862212 
	C235.784805,7.599289 242.681931,4.003630 250.000000,1.000000 
	C255.688034,1.000000 261.376068,1.000000 267.646362,1.367094 
	C275.760742,2.984280 281.798218,7.333102 286.693207,12.560015 
	C294.392761,20.781645 297.573761,31.063305 297.034271,42.435871 
	C296.824310,46.862152 297.000000,51.306732 297.000000,55.756386 
	C309.911438,55.756386 322.303925,55.756386 335.000000,55.756386 
	C335.000000,49.059772 334.631531,42.576321 335.081818,36.150234 
	C335.860107,25.042997 340.392914,15.562394 349.571106,8.983670 
	C354.008453,5.803057 359.167633,3.629514 364.000000,0.999998 
M94.500000,145.000000 
	C84.402718,145.000000 74.305428,145.000000 64.000000,145.000000 
	C64.000000,147.384293 64.000000,149.195679 64.000000,151.007065 
	C64.000000,248.827301 63.986500,346.647522 64.042488,444.467743 
	C64.045113,449.040680 64.418419,453.648163 65.052399,458.178925 
	C66.439102,468.088959 76.737190,476.979980 86.794205,476.982452 
	C200.279007,477.010193 313.763855,477.028381 427.248444,476.865875 
	C430.730865,476.860901 434.488892,475.391907 437.638763,473.708160 
	C446.833160,468.793182 449.929993,460.135223 449.939514,450.424164 
	C450.037964,350.104340 450.000977,249.784409 449.990173,149.464493 
	C449.990021,148.031769 449.842621,146.599060 449.754791,145.000000 
	C331.431641,145.000000 213.465820,145.000000 94.500000,145.000000 
M275.000000,41.688755 
	C275.139465,34.740017 273.064331,28.666880 266.861664,25.034241 
	C256.748016,19.111103 243.477264,25.185484 243.135254,40.140427 
	C242.617538,62.778324 242.871918,85.438026 243.085693,108.085739 
	C243.142670,114.121384 245.649612,119.592751 250.939331,122.911308 
	C255.929138,126.041702 261.333466,126.176132 266.621979,123.087082 
	C272.382477,119.722351 274.889374,114.399605 274.936798,108.096214 
	C275.100830,86.280411 275.000000,64.462631 275.000000,41.688755 
M389.000000,44.660004 
	C388.666626,41.925526 388.404419,39.180084 387.985474,36.458782 
	C387.040375,30.320065 381.071808,22.075155 371.357880,22.918209 
	C364.632141,23.501928 357.152191,30.043573 357.086731,37.186096 
	C356.862457,61.658405 356.920685,86.134491 357.059265,110.608070 
	C357.092072,116.398666 363.108551,123.343872 368.672852,124.888092 
	C374.487366,126.501755 382.066498,123.942673 384.988708,118.248871 
	C387.120758,114.094757 388.727722,109.174294 388.824677,104.558830 
	C389.237213,84.921410 389.000000,65.270332 389.000000,44.660004 
M158.978439,117.231834 
	C159.985626,112.707626 161.781738,108.197372 161.862061,103.656769 
	C162.192047,85.003029 162.049240,66.339798 161.955124,47.680698 
	C161.937958,44.276283 161.497208,40.849823 160.973862,37.476688 
	C159.425186,27.494802 152.992966,22.270842 143.364868,23.000498 
	C136.175903,23.545309 130.001465,31.486673 130.000687,40.199680 
	C129.998657,62.691139 130.178528,85.184692 129.915497,107.673065 
	C129.804306,117.180946 135.434570,122.284134 141.298370,124.705551 
	C146.822754,126.986824 153.880371,123.946617 158.978439,117.231834 
z"/>
<path fill="#FFFFFF" opacity="1.000000" stroke="none" 
	d="
M136.531342,1.000000 
	C132.164612,3.631855 127.002449,5.807808 122.562019,8.990661 
	C113.375420,15.575527 108.839958,25.059305 108.079773,36.183037 
	C107.640503,42.610847 108.000000,49.093239 108.000000,56.000000 
	C100.728333,56.000000 93.775726,55.758812 86.844856,56.044765 
	C65.180588,56.938587 48.597050,66.622299 36.952324,85.001251 
	C30.483625,95.210846 28.073645,106.469505 28.062553,118.216171 
	C27.957518,229.458481 27.972927,340.700928 28.031603,451.943329 
	C28.039637,467.174164 32.835720,480.690521 42.830433,492.470612 
	C51.063152,502.173981 61.312656,508.263031 73.345909,511.698151 
	C74.744354,512.097351 76.266167,512.064392 77.865387,512.615845 
	C52.348827,513.000000 26.697655,513.000000 1.023242,513.000000 
	C1.023242,342.451843 1.023242,171.903717 1.023242,1.000000 
	C46.020271,1.000000 91.041473,1.000000 136.531342,1.000000 
z"/>
<path fill="#FFFFFF" opacity="1.000000" stroke="none" 
	d="
M436.468658,513.000000 
	C439.124908,512.054810 442.301422,511.252014 445.366394,510.141418 
	C466.456390,502.499390 479.123016,487.301086 484.561371,465.850403 
	C485.515503,462.087006 485.939972,458.089203 485.942413,454.199249 
	C486.013641,341.384369 486.231201,228.568680 485.841461,115.755119 
	C485.740936,86.664444 466.632721,63.415531 437.815887,57.223740 
	C429.373383,55.409725 420.404877,56.043655 411.000000,55.517738 
	C411.000000,51.459007 411.162628,47.030895 410.969055,42.618412 
	C410.420013,30.103605 407.710541,18.200615 397.299469,10.086938 
	C392.616974,6.437726 386.626373,4.467065 381.114655,1.367381 
	C424.973297,1.000000 468.946564,1.000000 512.945557,1.000000 
	C512.945557,171.666672 512.945557,342.333344 512.945557,513.000000 
	C487.573181,513.000000 462.255249,513.000000 436.468658,513.000000 
z"/>
<path fill="#FFFFFF" opacity="1.000000" stroke="none" 
	d="
M363.531342,0.999998 
	C359.167633,3.629514 354.008453,5.803057 349.571106,8.983670 
	C340.392914,15.562394 335.860107,25.042997 335.081818,36.150234 
	C334.631531,42.576321 335.000000,49.059772 335.000000,55.756386 
	C322.303925,55.756386 309.911438,55.756386 297.000000,55.756386 
	C297.000000,51.306732 296.824310,46.862152 297.034271,42.435871 
	C297.573761,31.063305 294.392761,20.781645 286.693207,12.560015 
	C281.798218,7.333102 275.760742,2.984280 268.114319,1.367094 
	C299.687561,1.000000 331.375122,1.000000 363.531342,0.999998 
z"/>
<path fill="#FFFFFF" opacity="1.000000" stroke="none" 
	d="
M249.531342,1.000000 
	C242.681931,4.003630 235.784805,7.599289 230.595840,13.862212 
	C225.984665,19.427750 222.742142,25.621834 222.050644,32.850693 
	C221.332184,40.361629 221.017456,47.911179 220.507507,55.729755 
	C208.695129,55.729755 196.638184,55.729755 184.000000,55.729755 
	C184.000000,51.212006 184.172974,46.612194 183.966522,42.029472 
	C183.418533,29.865795 180.507263,18.371891 170.625580,10.426688 
	C165.891205,6.620102 159.739197,4.576672 154.114624,1.367357 
	C185.687561,1.000000 217.375122,1.000000 249.531342,1.000000 
z"/>
<path fill="#FFFFFF" opacity="1.000000" stroke="none" 
	d="
M95.000000,145.000000 
	C213.465820,145.000000 331.431641,145.000000 449.754791,145.000000 
	C449.842621,146.599060 449.990021,148.031769 449.990173,149.464493 
	C450.000977,249.784409 450.037964,350.104340 449.939514,450.424164 
	C449.929993,460.135223 446.833160,468.793182 437.638763,473.708160 
	C434.488892,475.391907 430.730865,476.860901 427.248444,476.865875 
	C313.763855,477.028381 200.279007,477.010193 86.794205,476.982452 
	C76.737190,476.979980 66.439102,468.088959 65.052399,458.178925 
	C64.418419,453.648163 64.045113,449.040680 64.042488,444.467743 
	C63.986500,346.647522 64.000000,248.827301 64.000000,151.007065 
	C64.000000,149.195679 64.000000,147.384293 64.000000,145.000000 
	C74.305428,145.000000 84.402718,145.000000 95.000000,145.000000 
M139.000000,272.501221 
	C139.000000,286.596863 139.000000,300.692535 139.000000,315.176636 
	C168.642792,315.176636 197.713623,315.176636 227.175583,315.176636 
	C227.175583,344.641724 227.175583,373.712555 227.175583,402.713013 
	C247.310043,402.713013 267.046936,402.713013 287.176666,402.713013 
	C287.176666,373.357178 287.176666,344.286346 287.176666,314.824341 
	C316.641785,314.824341 345.712677,314.824341 374.713013,314.824341 
	C374.713013,294.689911 374.713013,274.953003 374.713013,254.823273 
	C345.357086,254.823273 316.286255,254.823273 286.824219,254.823273 
	C286.824219,225.691422 286.824219,196.953857 286.824219,168.287079 
	C266.689728,168.287079 246.952835,168.287079 226.823059,168.287079 
	C226.823059,197.309769 226.823059,226.047333 226.823059,255.175964 
	C197.357880,255.175964 168.287048,255.175964 139.000000,255.175964 
	C139.000000,260.880920 139.000000,266.191376 139.000000,272.501221 
z"/>
<path fill="#FFFFFF" opacity="1.000000" stroke="none" 
	d="
M275.000000,42.167175 
	C275.000000,64.462631 275.100830,86.280411 274.936798,108.096214 
	C274.889374,114.399605 272.382477,119.722351 266.621979,123.087082 
	C261.333466,126.176132 255.929138,126.041702 250.939331,122.911308 
	C245.649612,119.592751 243.142670,114.121384 243.085693,108.085739 
	C242.871918,85.438026 242.617538,62.778324 243.135254,40.140427 
	C243.477264,25.185484 256.748016,19.111103 266.861664,25.034241 
	C273.064331,28.666880 275.139465,34.740017 275.000000,42.167175 
z"/>
<path fill="#FFFFFF" opacity="1.000000" stroke="none" 
	d="
M389.000000,45.142124 
	C389.000000,65.270332 389.237213,84.921410 388.824677,104.558830 
	C388.727722,109.174294 387.120758,114.094757 384.988708,118.248871 
	C382.066498,123.942673 374.487366,126.501755 368.672852,124.888092 
	C363.108551,123.343872 357.092072,116.398666 357.059265,110.608070 
	C356.920685,86.134491 356.862457,61.658405 357.086731,37.186096 
	C357.152191,30.043573 364.632141,23.501928 371.357880,22.918209 
	C381.071808,22.075155 387.040375,30.320065 387.985474,36.458782 
	C388.404419,39.180084 388.666626,41.925526 389.000000,45.142124 
z"/>
<path fill="#FFFFFF" opacity="1.000000" stroke="none" 
	d="
M158.788544,117.576202 
	C153.880371,123.946617 146.822754,126.986824 141.298370,124.705551 
	C135.434570,122.284134 129.804306,117.180946 129.915497,107.673065 
	C130.178528,85.184692 129.998657,62.691139 130.000687,40.199680 
	C130.001465,31.486673 136.175903,23.545309 143.364868,23.000498 
	C152.992966,22.270842 159.425186,27.494802 160.973862,37.476688 
	C161.497208,40.849823 161.937958,44.276283 161.955124,47.680698 
	C162.049240,66.339798 162.192047,85.003029 161.862061,103.656769 
	C161.781738,108.197372 159.985626,112.707626 158.788544,117.576202 
z"/>
<path fill="#000000" opacity="1.000000" stroke="none" 
	d="
M139.000000,272.001526 
	C139.000000,266.191376 139.000000,260.880920 139.000000,255.175964 
	C168.287048,255.175964 197.357880,255.175964 226.823059,255.175964 
	C226.823059,226.047333 226.823059,197.309769 226.823059,168.287079 
	C246.952835,168.287079 266.689728,168.287079 286.824219,168.287079 
	C286.824219,196.953857 286.824219,225.691422 286.824219,254.823273 
	C316.286255,254.823273 345.357086,254.823273 374.713013,254.823273 
	C374.713013,274.953003 374.713013,294.689911 374.713013,314.824341 
	C345.712677,314.824341 316.641785,314.824341 287.176666,314.824341 
	C287.176666,344.286346 287.176666,373.357178 287.176666,402.713013 
	C267.046936,402.713013 247.310043,402.713013 227.175583,402.713013 
	C227.175583,373.712555 227.175583,344.641724 227.175583,315.176636 
	C197.713623,315.176636 168.642792,315.176636 139.000000,315.176636 
	C139.000000,300.692535 139.000000,286.596863 139.000000,272.001526 
z"/>
</svg>